<svg width="650" height="650" viewBox="0 0 650 650" fill="none" xmlns="http://www.w3.org/2000/svg">
<circle cx="325" cy="325" r="325" fill="white"/>
<path d="M236.295 478.536C234.795 473.266 239.355 469.316 239.385 464.376C239.415 459.276 240.675 454.666 244.565 451.006C246.045 449.616 245.015 448.356 243.855 447.236C242.435 445.866 241.015 446.116 240.085 447.566C237.475 451.646 233.765 455.066 231.565 459.186C230.035 462.046 229.725 465.706 227.445 468.516C226.245 469.996 225.755 470.266 224.665 468.426C222.635 465.006 219.815 464.996 218.605 468.796C217.595 471.966 214.585 472.696 213.205 475.146C212.735 475.986 211.665 476.096 210.855 475.516C209.935 474.856 210.915 474.256 211.095 473.626C212.955 467.126 214.405 460.476 216.775 454.166C219.075 448.056 220.505 441.436 224.685 436.186C227.235 432.986 226.465 429.436 226.345 425.996C226.275 424.096 224.995 424.166 223.145 424.766C219.895 425.816 216.835 427.786 212.725 427.596C215.485 425.686 215.985 423.846 212.895 422.696C210.725 421.886 208.455 421.586 206.535 419.986C205.375 419.026 203.385 419.176 202.665 420.776C200.825 424.806 196.665 425.696 193.545 427.976C192.315 428.876 191.065 429.356 189.575 428.456C186.735 426.736 184.815 427.866 183.005 430.336C181.365 432.566 179.215 434.386 179.005 437.446C178.965 438.036 178.275 438.896 177.705 439.096C173.075 440.726 169.195 444.266 164.055 444.576C162.915 444.646 162.205 445.296 161.305 445.776C157.985 447.536 154.355 446.396 152.455 443.196C149.985 439.006 145.995 441.036 142.905 441.426C139.835 441.816 137.785 445.216 133.865 445.076C131.965 445.006 132.495 448.386 132.855 450.146C133.135 451.486 133.765 453.546 136.165 452.266C136.785 451.936 137.605 451.706 138.275 451.816C139.405 451.986 141.325 450.916 141.455 452.986C141.565 454.706 139.805 454.406 138.765 454.986C134.705 457.256 130.055 455.716 126.125 457.706C125.865 457.836 125.455 458.046 125.305 457.936C121.005 455.066 116.895 457.326 112.615 458.086C110.685 458.426 109.625 458.546 109.395 460.606C109.165 462.706 109.885 463.706 112.085 463.376C113.235 463.206 114.035 463.886 114.945 464.606C113.735 465.786 111.905 464.626 110.685 466.026C108.955 467.996 106.885 471.016 105.085 465.866C104.745 464.906 98.1345 466.656 97.9145 467.816C97.3645 470.726 100.465 468.846 101.165 470.176C95.4745 476.126 88.6545 475.536 83.8045 468.356C81.5545 465.036 79.7545 461.976 75.1245 461.166C72.6845 460.736 70.8345 457.796 70.0845 454.886C69.2645 451.746 68.0245 448.906 65.4845 446.596C61.5845 443.046 61.7345 434.716 66.3645 432.076C73.9345 427.756 76.9145 420.246 81.0745 413.526C85.2645 406.766 90.1345 400.506 95.0945 394.356C101.375 386.576 108.075 379.106 113.715 370.836C116.485 366.776 120.585 364.166 123.685 360.466C127.075 356.406 131.445 353.156 132.915 347.706C133.095 347.056 133.735 346.456 134.305 346.006C140.915 340.846 144.485 332.916 150.965 327.676C158.935 321.236 165.375 313.286 172.545 306.056C181.065 297.456 189.965 289.306 199.675 282.056C201.535 280.666 204.375 278.586 202.695 276.146C201.255 274.046 198.545 272.416 195.115 274.426C191.715 276.416 187.735 277.406 183.675 276.716C179.995 276.086 177.235 278.386 174.095 279.456C165.505 282.366 156.845 285.106 148.405 288.416C139.175 292.036 129.805 295.196 120.385 298.246C119.085 298.666 118.075 300.186 116.795 300.386C113.465 300.916 110.635 305.206 106.765 301.846C104.465 304.816 100.475 302.386 97.8545 304.656C96.8545 305.516 95.2745 305.696 92.9445 306.566C96.7345 302.736 99.4245 299.556 104.205 298.786C105.855 298.516 107.155 295.946 108.545 294.356C108.965 293.866 109.495 293.206 108.605 292.506C107.925 291.966 107.415 292.176 106.645 292.386C100.025 294.166 93.3945 295.976 86.4245 295.496C83.2745 295.276 80.3345 295.876 77.4045 297.096C76.3945 297.516 74.2545 298.286 73.7645 296.056C73.3545 294.186 74.1445 292.806 76.3345 292.846C78.3845 292.886 79.5045 290.946 81.4845 290.586C82.7845 290.346 83.8745 288.776 83.4745 287.036C82.8745 284.436 80.7545 283.156 78.5745 282.396C76.4445 281.646 73.8245 282.556 72.0045 280.456C71.8045 280.226 70.6845 280.386 70.3845 280.716C66.4245 285.066 66.4645 285.166 61.6945 286.526C60.6145 286.836 59.6845 287.966 58.1545 287.236C57.6545 286.496 58.5045 285.386 58.7745 285.266C67.1745 281.316 74.1245 274.936 82.7245 271.226C85.7745 269.916 88.9445 269.936 91.9245 268.706C101.825 264.626 111.615 260.276 121.475 256.106C132.845 251.306 144.775 248.516 156.425 244.736C161.065 243.226 165.525 241.036 170.025 239.376C180.405 235.536 189.575 228.576 201.085 227.416C203.485 227.176 206.785 226.256 208.665 223.646C209.155 222.966 209.815 222.276 210.865 222.336C220.005 222.856 227.385 217.346 235.705 215.066C245.625 212.346 255.275 208.236 265.345 206.576C274.115 205.136 283.315 206.276 293.015 206.276C291.525 211.106 289.155 213.266 286.115 214.956C285.525 215.286 283.805 214.366 284.325 216.356C284.745 217.966 286.115 218.346 287.005 217.746C292.875 213.836 296.645 219.216 301.195 220.866C302.645 221.396 303.575 222.956 305.485 221.716C306.605 220.996 307.845 222.156 308.465 222.916C309.085 223.666 307.955 224.516 307.295 225.026C304.075 227.476 302.835 230.156 304.045 234.476C304.995 237.866 303.705 240.996 299.765 242.996C294.025 245.916 289.915 251.096 285.105 255.306C283.475 256.736 282.105 258.506 279.265 258.856C279.705 256.066 282.115 255.106 283.435 253.396C284.455 252.086 286.785 250.896 284.785 249.076C283.065 247.516 280.385 247.366 278.815 249.246C275.075 253.696 271.605 258.316 265.815 260.336C265.305 260.516 264.615 261.126 264.595 261.566C264.265 267.426 258.665 269.176 255.765 272.996C255.065 273.916 254.455 274.916 253.765 275.856C252.585 277.456 253.645 278.886 254.505 279.846C255.735 281.226 256.905 279.936 257.815 278.976C259.165 277.556 260.445 276.056 263.115 277.266C255.605 284.966 248.195 292.566 240.775 300.166C240.375 299.796 239.975 299.436 239.575 299.066C242.385 296.226 245.205 293.386 248.015 290.546C249.645 288.896 252.285 287.036 249.815 284.736C247.325 282.416 244.775 284.246 243.155 286.596C242.055 288.186 241.035 289.746 239.415 290.886C236.025 288.186 238.425 286.066 240.325 284.246C241.105 283.486 242.295 282.996 243.025 282.076C243.745 281.176 243.685 279.996 243.225 279.126C242.775 278.266 241.575 278.446 240.765 278.626C238.255 279.166 235.215 280.446 234.925 282.656C234.355 287.066 230.635 287.966 228.155 290.106C225.735 292.176 224.295 294.816 222.515 297.266C221.955 298.036 221.675 298.976 222.435 299.666C223.175 300.326 224.135 300.096 224.825 299.406C226.025 298.196 227.315 297.566 228.605 299.106C229.935 300.686 228.725 301.796 227.645 302.866C223.975 306.506 221.005 310.766 216.755 313.916C214.765 315.396 214.235 314.996 213.335 313.186C212.765 312.036 212.485 309.786 210.365 311.306C208.395 312.716 207.365 314.996 207.125 317.296C207.035 318.166 208.885 317.956 209.825 317.696C211.015 317.366 211.595 315.526 213.615 316.436C213.395 317.526 211.955 318.226 212.155 319.576C212.405 321.246 211.345 321.856 210.005 321.236C207.505 320.066 205.305 320.216 204.245 322.856C203.415 324.926 207.015 329.106 209.525 329.476C210.915 329.686 212.585 328.876 214.305 331.956C211.205 329.426 208.095 332.576 206.095 329.256C205.645 328.516 204.825 328.396 204.195 329.036C201.515 331.756 197.335 332.796 195.825 336.946C195.355 338.236 193.465 338.996 192.245 340.026C187.735 343.846 184.045 348.016 181.005 353.416C176.245 361.876 170.005 369.686 162.915 376.476C160.965 378.346 158.705 380.326 156.055 381.716C151.885 383.896 148.665 387.166 148.555 392.396C148.515 394.486 147.165 395.846 145.775 397.146C142.635 400.066 139.635 403.126 137.755 407.036C137.155 408.286 135.085 409.716 137.225 411.146C139.215 412.476 141.475 411.526 142.025 409.606C143.245 405.306 146.895 403.076 149.225 399.766C151.825 396.086 155.255 393.356 158.335 390.076C159.765 393.826 157.515 396.286 155.675 398.636C154.245 400.476 153.275 402.376 154.595 404.216C155.915 406.056 158.125 404.896 159.815 404.296C170.375 400.586 180.515 395.906 190.615 391.126C193.635 389.696 197.055 389.496 200.265 388.616C202.335 388.046 204.585 387.826 206.315 386.566C208.925 384.666 211.845 384.446 214.705 384.906C218.755 385.556 221.665 382.876 225.145 381.916C233.115 379.696 240.725 376.156 249.365 376.696C253.035 376.926 255.245 373.446 256.565 370.836C260.685 362.726 265.435 354.966 268.915 346.446C271.175 340.906 273.505 335.156 276.465 329.806C276.745 329.296 276.845 328.546 277.275 328.276C281.785 325.366 282.375 320.326 284.365 315.966C286.945 310.346 290.235 305.036 293.415 299.706C299.315 289.836 305.905 280.326 311.515 270.356C315.805 262.746 321.445 256.456 326.395 249.516C331.075 242.966 336.225 236.826 341.275 230.606C343.285 228.136 345.935 226.066 348.605 224.286C352.265 221.856 355.305 218.756 358.385 215.756C359.865 214.316 361.375 213.726 362.685 214.406C366.365 216.296 370.665 214.506 374.195 216.716C374.315 216.796 374.485 216.936 374.585 216.906C382.175 214.346 388.345 222.066 396.015 219.776C398.675 218.976 399.215 221.766 399.795 223.696C400.805 227.026 400.275 230.786 404.335 233.026C406.205 234.056 405.565 237.326 404.515 239.546C403.685 241.306 403.045 243.076 403.595 245.756C399.735 242.096 398.275 244.256 397.185 247.376C396.895 248.196 396.365 249.036 396.405 249.836C396.525 252.026 394.875 255.366 397.965 255.996C401.385 256.696 401.725 253.576 401.635 250.876C401.605 249.946 401.735 249.076 403.255 248.646C402.835 252.426 405.065 256.056 402.665 259.786C402.065 260.716 402.435 262.296 403.025 263.636C404.145 266.136 402.885 267.696 399.955 268.996C400.935 266.846 403.125 264.366 400.135 263.766C397.485 263.236 393.455 261.496 391.865 265.386C390.005 269.946 390.205 274.896 391.865 279.586C392.515 281.416 394.415 282.206 396.185 282.016C398.435 281.776 397.965 279.716 398.055 278.136C398.185 275.866 397.235 273.236 400.125 271.886C402.535 275.366 403.865 278.736 399.995 282.356C399.275 283.026 399.715 285.136 400.205 286.626C401.185 289.596 399.895 291.146 396.845 290.376C394.295 289.736 394.305 291.666 393.625 292.946C391.495 296.896 391.555 301.386 391.105 305.616C390.595 310.436 389.835 315.186 389.175 319.966C388.925 321.776 388.675 323.746 389.835 325.576C390.495 326.626 390.905 327.746 392.355 327.646C393.765 327.546 394.395 326.646 394.475 325.266C394.525 324.456 394.265 323.216 395.635 323.436C396.185 323.526 397.035 324.446 397.015 324.956C396.705 331.646 401.995 330.236 404.655 329.066C414.435 324.786 425.215 322.986 434.315 317.056C449.645 307.066 465.495 297.826 479.545 285.966C488.825 285.926 486.635 276.686 490.505 272.286C493.355 269.046 494.835 264.786 498.215 261.876C500.025 260.326 498.525 259.116 497.505 257.776C496.165 256.006 493.835 256.206 492.285 254.646C490.905 253.246 488.695 253.106 489.925 250.016C490.865 247.646 487.985 247.106 486.315 246.446C484.395 245.676 482.205 243.566 480.305 245.276C478.135 247.236 479.145 249.206 481.795 250.316C483.585 251.066 486.825 251.426 486.075 253.716C485.355 255.946 482.635 253.656 481.085 253.356C477.045 252.556 473.095 250.976 469.365 249.186C468.005 248.536 466.605 248.376 465.125 247.936C465.265 245.836 468.705 243.826 466.035 242.156C462.995 240.246 461.335 234.246 455.885 238.026C454.995 238.646 454.305 238.026 453.315 237.446C449.405 235.136 445.285 232.456 440.825 236.656C440.045 237.396 438.275 236.126 438.365 234.346C438.535 230.986 436.635 229.746 433.915 229.536C431.815 229.376 432.005 228.176 431.995 226.836C431.985 225.656 432.235 223.856 430.965 223.706C425.135 223.036 421.925 218.326 417.495 215.526C416.605 214.966 415.405 214.846 414.565 215.546C413.765 216.206 413.995 217.276 414.685 217.896C416.735 219.756 415.525 222.056 416.125 224.626C413.615 221.926 413.255 219.276 413.135 216.286C412.975 212.456 413.965 208.656 411.925 204.636C410.845 202.506 414.215 199.296 416.025 196.856C421.145 189.936 427.495 184.286 434.445 179.256C440.475 174.886 447.095 171.646 453.915 168.756C462.535 165.106 471.015 160.896 479.745 157.806C488.115 154.846 497.045 152.956 505.795 150.836C514.945 148.616 524.115 146.336 533.285 144.356C539.915 142.926 546.575 141.296 553.255 139.966C560.925 138.436 568.565 136.546 576.195 134.726C581.115 133.556 585.855 131.446 591.095 132.136C591.095 132.436 591.095 132.736 591.095 133.026C588.505 134.086 586.365 136.786 584.035 137.136C579.875 137.756 580.065 140.166 580.455 142.766C580.825 145.256 580.715 146.556 577.675 146.586C576.295 146.596 575.155 147.996 575.015 149.706C574.905 151.026 575.285 152.146 576.585 152.576C580.785 153.966 583.865 157.336 587.955 158.886C588.745 159.186 589.275 159.406 589.275 160.296C589.275 161.306 588.725 162.096 587.835 162.326C580.435 164.226 573.495 167.596 566.155 169.506C556.185 172.106 546.755 176.316 536.705 178.676C529.035 180.476 521.575 183.206 514.105 185.766C509.855 187.226 505.125 186.496 501.205 187.936C491.755 191.426 482.655 195.846 472.965 198.756C471.125 199.306 468.815 199.726 468.885 202.016C468.965 204.476 471.525 205.026 473.385 205.246C480.685 206.126 487.355 209.306 494.275 211.326C509.385 215.736 524.115 221.676 537.555 230.106C541.745 232.736 545.965 235.466 546.685 241.646C547.175 245.896 548.955 250.426 551.825 253.906C554.105 256.666 553.575 259.096 552.865 262.066C551.685 266.956 549.815 271.686 549.935 276.886C550.095 283.916 546.625 287.706 539.385 288.626C542.745 288.156 542.005 284.096 544.075 283.126C548.155 281.206 547.745 278.216 546.825 275.026C546.365 273.416 546.415 272.916 548.115 272.146C550.055 271.256 549.215 268.976 548.795 267.436C548.475 266.296 547.395 265.056 545.795 265.236C543.805 265.466 543.735 266.976 543.695 268.546C543.675 269.236 543.575 270.226 543.125 270.566C537.435 274.866 537.255 282.536 532.645 287.496C531.765 288.436 531.895 289.726 532.465 290.836C533.015 291.896 534.085 292.236 535.135 291.826C536.335 291.356 537.565 290.096 538.295 292.226C538.965 294.166 537.355 294.716 536.065 295.396C534.605 296.166 533.075 296.386 531.415 296.486C526.815 296.736 522.595 297.986 519.305 301.576C517.935 303.066 516.435 304.436 514.675 305.626C509.995 308.786 508.375 311.576 510.665 316.066C511.155 317.026 511.585 317.956 510.215 318.546C509.095 319.026 507.815 318.746 507.535 317.726C506.205 312.896 502.985 315.116 501.145 316.486C496.675 319.786 492.065 322.836 487.455 325.926C484.815 327.696 483.455 329.886 486.535 332.636C487.455 333.466 488.835 334.246 488.055 336.006C486.125 335.816 484.185 335.626 482.125 335.426C484.105 331.616 483.755 330.146 481.085 330.416C478.405 330.686 476.625 332.666 477.915 334.956C478.985 336.866 478.525 336.736 477.155 337.746C473.425 340.516 469.595 343.366 465.675 345.536C463.205 346.906 460.085 351.916 455.815 347.646C454.995 346.826 453.935 347.846 453.775 348.586C452.735 353.346 448.815 355.226 445.075 356.816C437.265 360.136 429.275 363.056 421.305 365.996C413.445 368.896 405.525 371.886 397.065 372.196C393.525 372.326 391.645 373.916 391.065 376.796C390.195 381.116 392.165 385.546 391.005 389.956C390.755 390.896 391.865 390.946 392.435 391.346C393.925 392.406 393.815 393.456 392.305 394.436C388.575 396.836 388.765 401.036 389.475 404.146C390.075 406.736 390.325 408.236 389.555 411.066C388.245 415.866 388.915 421.396 389.575 426.506C390.285 432.006 390.485 437.546 389.785 442.896C388.895 449.766 388.915 456.436 389.855 463.256C390.355 466.896 389.945 470.666 389.945 474.376C387.505 471.576 385.825 468.756 386.465 465.216C386.845 463.146 385.335 461.656 384.905 459.926C384.245 457.276 382.565 457.946 381.195 458.156C379.375 458.436 378.855 459.826 379.705 461.506C380.135 462.346 380.555 463.256 379.775 463.926C378.825 464.736 377.935 463.876 376.975 463.526C375.715 463.066 375.125 462.256 374.595 461.126C374.245 460.366 373.525 459.496 372.495 460.096C371.585 460.626 370.915 461.346 371.745 462.646C372.175 463.316 372.115 464.356 372.115 465.226C372.115 466.056 372.505 467.366 371.555 467.556C370.735 467.716 369.075 467.116 368.915 466.526C367.935 463.066 364.225 462.166 362.585 459.456C361.245 457.236 359.995 457.326 358.665 459.236C357.735 460.576 356.855 460.896 356.235 459.226C353.495 451.846 351.845 444.216 351.615 436.336C351.435 430.166 350.025 424.246 347.995 418.496C345.825 412.326 343.955 406.156 344.435 399.496C344.665 396.246 344.215 393.126 343.105 389.986C342.155 387.316 341.025 386.876 338.655 388.196C337.005 389.116 335.315 389.866 333.265 388.626C331.085 387.306 328.725 386.836 326.185 388.266C324.045 389.476 321.035 389.746 322.005 393.436C322.165 394.036 321.645 394.626 320.945 394.556C317.625 394.246 314.855 394.776 313.945 398.626C313.895 398.816 312.955 399.076 312.825 398.936C308.995 394.866 306.985 399.286 304.345 400.716C304.205 398.666 303.815 396.716 301.065 397.586C299.975 397.926 298.175 398.496 299.005 400.216C300.065 402.416 301.905 402.246 303.735 401.006C303.975 400.846 304.235 400.716 304.485 400.576C303.865 403.796 300.725 403.616 298.675 404.306C291.575 406.696 284.375 408.696 279.645 415.176C276.225 419.876 273.845 425.166 271.015 430.196C268.815 434.116 270.945 440.816 263.875 441.746C263.595 441.786 263.365 442.416 263.175 442.806C261.045 447.186 259.375 451.816 255.695 455.316C254.695 456.266 254.265 457.746 254.135 459.316C253.615 465.426 252.145 466.946 246.035 467.826C244.875 467.996 243.765 468.396 243.475 469.276C242.305 472.766 238.765 474.846 238.095 478.586C237.485 478.536 236.885 478.536 236.295 478.536ZM320.705 354.386C322.225 354.596 323.445 354.256 324.655 353.586C328.945 351.206 333.845 350.456 338.315 348.396C343.275 346.116 347.085 340.696 346.085 335.346C345.225 330.726 345.245 325.806 346.805 321.586C348.105 318.076 346.915 316.056 344.945 314.266C342.075 311.656 340.195 314.406 338.355 316.276C337.445 317.206 336.385 317.976 336.265 319.536C336.155 320.926 334.815 321.836 333.715 321.296C329.645 319.296 328.725 322.076 326.855 324.746C325.435 326.776 324.825 329.256 323.035 331.016C322.765 331.276 322.745 331.796 322.605 332.196C322.425 332.096 322.255 331.976 322.065 331.906C320.245 331.186 317.895 329.616 317.695 333.216C317.565 335.436 314.725 336.726 315.875 339.066C317.805 342.996 316.445 347.286 317.425 351.366C318.005 353.686 318.275 354.976 320.705 354.386ZM424.565 344.756C426.675 344.606 427.815 344.796 428.725 344.416C435.655 341.516 442.575 338.596 449.405 335.476C452.265 334.166 452.235 331.306 451.365 328.916C450.005 325.196 443.715 322.766 440.685 325.246C435.285 329.666 428.675 331.796 423.025 335.656C420.595 337.316 419.845 339.616 420.565 342.126C421.215 344.396 423.355 344.966 424.565 344.756ZM505.995 166.946C498.245 166.576 491.495 169.886 484.685 172.446C480.025 174.196 479.375 179.466 482.965 181.596C484.845 182.716 487.225 182.566 488.995 181.966C496.155 179.536 503.365 177.526 510.885 176.556C513.195 176.256 514.345 174.036 515.045 171.976C515.855 169.596 513.365 169.206 512.185 168.186C510.425 166.666 508.085 166.806 505.995 166.946ZM374.815 253.106C374.815 249.946 375.025 247.406 374.765 244.916C374.425 241.786 373.295 238.576 369.965 237.826C367.305 237.236 365.755 239.656 364.465 241.906C360.505 248.826 362.065 256.086 363.285 263.206C363.685 265.536 364.845 268.726 368.105 268.586C371.365 268.446 372.895 265.776 374.125 262.936C375.605 259.476 374.275 255.926 374.815 253.106ZM373.015 304.056C372.895 301.006 373.605 297.266 372.075 293.776C370.945 291.196 368.905 290.476 366.115 290.866C363.725 291.196 361.885 291.676 361.385 294.456C360.235 300.876 360.545 307.346 360.485 313.806C360.475 315.096 360.815 316.106 361.795 316.906C363.075 317.936 364.115 319.896 366.085 318.936C369.215 317.426 372.585 315.866 372.965 311.756C373.195 309.406 373.015 307.016 373.015 304.056ZM173.745 341.386C173.765 336.126 171.945 335.206 167.265 337.086C159.535 340.186 155.225 346.876 149.975 352.626C147.645 355.176 148.615 357.736 150.585 359.106C152.605 360.516 155.325 362.006 158.035 359.066C162.025 354.726 166.055 350.316 171.015 347.046C173.345 345.506 173.905 343.606 173.745 341.386ZM190.385 317.826C192.635 318.076 194.705 317.286 196.145 315.476C199.605 311.146 204.405 308.396 208.655 305.076C211.865 302.566 212.565 300.996 210.255 297.356C207.785 293.456 204.765 293.786 202.125 295.716C196.895 299.526 191.925 303.806 187.825 308.846C186.205 310.836 185.665 313.686 186.445 316.346C186.995 318.196 188.795 317.796 190.385 317.826ZM129.885 280.326C134.555 279.036 140.915 277.636 146.505 274.156C149.645 272.196 150.025 269.146 148.635 265.896C147.685 263.686 145.715 262.686 143.565 263.466C137.345 265.706 131.165 268.096 125.105 270.766C123.345 271.536 121.635 273.136 121.075 275.226C120.145 278.656 122.545 280.336 129.885 280.326ZM295.165 330.706C296.165 332.836 295.105 336.756 298.265 337.876C301.085 338.876 302.645 335.936 304.025 333.676C307.355 328.246 310.475 322.666 314.225 317.546C316.455 314.506 316.265 312.316 313.365 310.626C310.735 309.096 307.675 308.826 305.505 311.686C303.585 314.226 301.625 316.816 300.255 319.666C298.555 323.156 295.425 325.976 295.165 330.706ZM343.565 270.316C343.885 268.366 342.865 266.896 341.335 266.356C338.705 265.436 335.875 265.786 334.045 268.026C329.825 273.206 326.065 278.736 322.785 284.556C321.165 287.426 322.275 290.556 324.265 292.486C326.605 294.746 329.005 292.316 331.115 290.976C331.665 290.626 331.955 289.866 332.345 289.276C334.915 285.416 336.915 281.216 340.135 277.716C341.915 275.766 343.085 273.076 343.565 270.316ZM199.255 245.366C198.245 245.526 197.225 245.656 196.225 245.856C190.095 247.106 184.405 249.676 178.545 251.746C175.785 252.726 173.225 253.846 174.645 257.506C175.935 260.826 178.305 262.216 181.915 261.066C188.355 259.016 194.805 257.006 201.255 255.016C204.175 254.116 204.585 251.876 204.045 249.416C203.525 246.986 202.515 244.786 199.255 245.366ZM465.965 221.686C466.375 219.806 465.605 218.036 463.715 217.106C458.115 214.346 452.515 211.546 446.725 209.226C444.755 208.436 441.645 207.746 440.275 210.266C438.885 212.826 439.335 215.886 442.065 217.536C447.765 220.976 453.335 224.796 459.805 226.656C463.305 227.656 465.925 225.416 465.965 221.686ZM534.505 164.476C540.395 162.476 546.615 161.556 552.265 158.746C555.135 157.316 556.165 154.876 554.995 152.246C553.885 149.736 551.595 148.306 548.415 149.346C543.185 151.066 537.945 152.776 532.625 154.146C529.625 154.916 527.475 156.676 528.045 159.426C528.635 162.236 530.705 164.766 534.505 164.476ZM227.525 280.486C229.665 280.186 230.805 280.496 231.955 279.816C237.135 276.706 241.825 272.986 245.775 268.426C246.575 267.506 247.325 266.166 246.765 264.396C245.485 260.346 238.895 258.996 234.975 262.596C231.315 265.966 228.115 269.846 224.915 273.676C223.935 274.836 223.155 276.526 224.075 278.186C225.005 279.886 226.515 280.686 227.525 280.486ZM236.065 243.796C242.855 242.746 249.315 240.486 255.295 237.226C257.525 236.016 257.365 232.846 256.425 230.376C255.585 228.176 253.565 227.086 251.505 227.736C245.045 229.776 238.505 231.786 232.985 235.936C231.635 236.956 230.135 238.116 231.465 240.366C232.545 242.206 233.465 244.006 236.065 243.796ZM100.175 420.526C98.4745 420.196 97.0545 420.576 96.0945 422.536C93.6145 427.566 90.8645 432.466 88.4045 437.506C87.3145 439.746 87.3745 442.526 89.2245 444.066C91.2945 445.796 93.5345 443.886 95.6745 442.986C96.8745 442.486 96.9845 441.486 97.5845 440.746C100.245 437.476 102.155 433.686 104.995 430.486C106.395 428.916 107.535 426.566 105.855 424.136C104.485 422.156 103.245 420.136 100.175 420.526ZM379.615 348.156C375.215 348.206 370.985 349.126 366.925 350.826C363.225 352.376 362.425 355.516 363.325 358.856C364.325 362.546 367.775 361.906 370.415 361.436C375.245 360.566 379.975 359.106 384.775 358.046C387.215 357.506 388.225 356.176 388.235 353.736C388.255 349.736 385.895 348.176 379.615 348.156ZM294.385 382.236C294.425 379.116 292.165 376.976 288.895 377.796C283.305 379.186 277.575 380.186 272.235 382.456C269.515 383.616 268.285 387.206 269.975 389.326C271.775 391.586 274.535 392.946 277.205 392.366C281.695 391.386 286.165 389.926 290.335 388.006C292.365 387.076 294.725 385.326 294.385 382.236ZM495.535 226.746C492.015 226.786 488.485 226.516 485.035 227.636C483.715 228.066 482.965 228.706 482.955 230.076C482.945 231.356 482.555 232.976 484.425 233.226C490.125 234.006 493.965 239.026 499.995 239.476C505.505 239.886 507.445 239.616 507.955 235.796C508.655 230.576 505.835 226.946 500.885 226.746C499.105 226.686 497.325 226.746 495.535 226.746ZM117.495 393.246C117.775 394.446 118.075 396.406 120.085 397.246C122.045 398.066 124.245 397.806 125.695 396.476C129.665 392.826 134.075 389.586 137.195 385.096C138.605 383.056 139.155 380.826 137.025 378.946C135.175 377.316 133.635 376.176 130.565 377.986C126.095 380.616 123.005 384.486 119.355 387.846C118.035 389.056 117.275 390.686 117.495 393.246ZM186.125 417.026C192.535 415.866 198.685 414.266 204.255 410.366C206.795 408.586 207.135 406.796 206.675 404.506C206.125 401.776 203.565 402.406 201.885 402.716C195.755 403.866 189.795 405.636 183.945 407.866C180.885 409.036 180.465 411.316 180.955 413.926C181.485 416.656 183.625 417.196 186.125 417.026ZM326.005 374.966C330.445 375.476 334.395 373.076 338.685 372.326C341.505 371.836 343.845 371.186 343.575 367.476C343.305 363.826 340.805 362.646 337.925 362.546C332.165 362.336 326.665 363.756 321.345 365.976C318.585 367.126 318.165 369.296 318.555 371.786C318.965 374.376 321.195 374.616 323.215 374.936C324.085 375.076 325.005 374.966 326.005 374.966ZM448.705 197.506C454.205 195.606 458.395 191.416 463.385 188.586C465.255 187.526 467.085 185.636 465.505 183.066C464.055 180.716 461.625 179.406 459.035 180.436C453.885 182.486 448.825 184.886 444.715 188.716C443.305 190.036 442.005 191.686 443.365 194.156C444.585 196.386 445.955 197.676 448.705 197.506ZM228.825 404.526C234.405 404.436 238.615 402.236 243.025 400.876C246.115 399.926 246.775 396.986 245.875 394.386C244.925 391.656 242.375 390.336 239.395 391.096C234.755 392.286 230.125 393.546 225.595 395.086C221.905 396.336 221.345 399.206 223.765 402.216C225.315 404.156 227.225 404.866 228.825 404.526ZM489.475 298.026C484.435 299.346 480.055 301.476 476.455 305.706C473.845 308.766 474.615 311.396 476.165 313.816C477.795 316.376 480.755 315.586 482.835 314.206C486.595 311.696 490.205 308.866 493.095 305.346C494.255 303.926 495.335 302.106 494.165 300.116C493.155 298.406 491.525 297.856 489.475 298.026ZM528.525 256.116C528.815 253.776 527.625 252.326 525.555 251.836C523.555 251.366 522.185 252.036 520.955 254.146C518.285 258.746 517.165 263.896 515.265 268.746C514.425 270.906 514.675 273.806 517.515 274.736C520.025 275.566 522.555 274.876 524.005 272.356C526.905 267.336 527.675 261.696 528.525 256.116ZM148.545 420.456C143.395 421.116 138.315 422.236 133.345 423.776C130.205 424.756 130.085 426.996 131.785 429.236C132.845 430.636 134.205 432.116 136.325 432.106C141.025 432.076 145.555 430.866 149.805 429.176C151.995 428.306 154.735 426.376 153.935 423.146C153.295 420.556 150.955 420.206 148.545 420.456ZM164.035 442.146C166.535 438.766 170.755 438.526 174.485 437.306C179.015 435.826 177.535 430.556 180.745 428.236C181.465 427.716 180.235 426.036 178.875 425.926C176.075 425.706 172.995 427.766 173.175 429.486C173.625 433.916 171.055 433.126 168.755 432.956C166.155 432.766 164.035 433.776 161.725 434.666C159.705 435.436 159.025 436.626 159.565 438.286C160.155 440.086 161.545 441.466 164.035 442.146ZM351.575 417.416C351.575 419.046 351.565 420.676 351.575 422.306C351.585 423.826 352.185 424.936 353.875 424.906C355.285 424.876 355.955 423.966 356.035 422.596C356.145 420.596 355.605 417.976 359.235 419.306C359.425 419.376 360.205 418.296 360.415 417.666C360.645 416.956 360.465 416.096 359.445 416.096C358.355 416.096 358.025 415.426 357.565 414.606C356.595 412.886 355.925 410.216 353.365 410.856C350.295 411.616 351.995 414.556 351.575 416.536C351.515 416.816 351.565 417.116 351.575 417.416ZM374.815 414.146C375.185 411.136 373.155 406.636 371.595 406.786C368.735 407.066 368.025 411.256 367.835 414.096C367.665 416.656 368.895 419.676 372.215 419.476C375.035 419.306 374.805 416.576 374.815 414.146ZM247.015 439.326C247.005 437.866 247.175 435.766 245.285 435.956C243.505 436.136 241.975 437.726 241.675 439.836C241.355 442.116 243.195 442.596 244.685 442.716C246.975 442.886 247.055 441.036 247.015 439.326Z" fill="black"/>
</svg>
