<?xml version="1.0" encoding="utf-8"?>
<!-- Generator: Adobe Illustrator 27.0.0, SVG Export Plug-In . SVG Version: 6.00 Build 0)  -->
<svg version="1.1" id="Capa_1" xmlns="http://www.w3.org/2000/svg" xmlns:xlink="http://www.w3.org/1999/xlink" x="0px" y="0px"
	 viewBox="0 0 612 792" style="enable-background:new 0 0 612 792;" xml:space="preserve">
<g>
	<path d="M222.52,385.42c-1.5-5.27,3.06-9.22,3.09-14.16c0.03-5.1,1.29-9.71,5.18-13.37c1.48-1.39,0.45-2.65-0.71-3.77
		c-1.42-1.37-2.84-1.12-3.77,0.33c-2.61,4.08-6.32,7.5-8.52,11.62c-1.53,2.86-1.84,6.52-4.12,9.33c-1.2,1.48-1.69,1.75-2.78-0.09
		c-2.03-3.42-4.85-3.43-6.06,0.37c-1.01,3.17-4.02,3.9-5.4,6.35c-0.47,0.84-1.54,0.95-2.35,0.37c-0.92-0.66,0.06-1.26,0.24-1.89
		c1.86-6.5,3.31-13.15,5.68-19.46c2.3-6.11,3.73-12.73,7.91-17.98c2.55-3.2,1.78-6.75,1.66-10.19c-0.07-1.9-1.35-1.83-3.2-1.23
		c-3.25,1.05-6.31,3.02-10.42,2.83c2.76-1.91,3.26-3.75,0.17-4.9c-2.17-0.81-4.44-1.11-6.36-2.71c-1.16-0.96-3.15-0.81-3.87,0.79
		c-1.84,4.03-6,4.92-9.12,7.2c-1.23,0.9-2.48,1.38-3.97,0.48c-2.84-1.72-4.76-0.59-6.57,1.88c-1.64,2.23-3.79,4.05-4,7.11
		c-0.04,0.59-0.73,1.45-1.3,1.65c-4.63,1.63-8.51,5.17-13.65,5.48c-1.14,0.07-1.85,0.72-2.75,1.2c-3.32,1.76-6.95,0.62-8.85-2.58
		c-2.47-4.19-6.46-2.16-9.55-1.77c-3.07,0.39-5.12,3.79-9.04,3.65c-1.9-0.07-1.37,3.31-1.01,5.07c0.28,1.34,0.91,3.4,3.31,2.12
		c0.62-0.33,1.44-0.56,2.11-0.45c1.13,0.17,3.05-0.9,3.18,1.17c0.11,1.72-1.65,1.42-2.69,2c-4.06,2.27-8.71,0.73-12.64,2.72
		c-0.26,0.13-0.67,0.34-0.82,0.23c-4.3-2.87-8.41-0.61-12.69,0.15c-1.93,0.34-2.99,0.46-3.22,2.52c-0.23,2.1,0.49,3.1,2.69,2.77
		c1.15-0.17,1.95,0.51,2.86,1.23c-1.21,1.18-3.04,0.02-4.26,1.42c-1.73,1.97-3.8,4.99-5.6-0.16c-0.34-0.96-6.95,0.79-7.17,1.95
		c-0.55,2.91,2.55,1.03,3.25,2.36c-5.69,5.95-12.51,5.36-17.36-1.82c-2.25-3.32-4.05-6.38-8.68-7.19c-2.44-0.43-4.29-3.37-5.04-6.28
		c-0.82-3.14-2.06-5.98-4.6-8.29c-3.9-3.55-3.75-11.88,0.88-14.52c7.57-4.32,10.55-11.83,14.71-18.55
		c4.19-6.76,9.06-13.02,14.02-19.17c6.28-7.78,12.98-15.25,18.62-23.52c2.77-4.06,6.87-6.67,9.97-10.37
		c3.39-4.06,7.76-7.31,9.23-12.76c0.18-0.65,0.82-1.25,1.39-1.7c6.61-5.16,10.18-13.09,16.66-18.33
		c7.97-6.44,14.41-14.39,21.58-21.62c8.52-8.6,17.42-16.75,27.13-24c1.86-1.39,4.7-3.47,3.02-5.91c-1.44-2.1-4.15-3.73-7.58-1.72
		c-3.4,1.99-7.38,2.98-11.44,2.29c-3.68-0.63-6.44,1.67-9.58,2.74c-8.59,2.91-17.25,5.65-25.69,8.96
		c-9.23,3.62-18.6,6.78-28.02,9.83c-1.3,0.42-2.31,1.94-3.59,2.14c-3.33,0.53-6.16,4.82-10.03,1.46c-2.3,2.97-6.29,0.54-8.91,2.81
		c-1,0.86-2.58,1.04-4.91,1.91c3.79-3.83,6.48-7.01,11.26-7.78c1.65-0.27,2.95-2.84,4.34-4.43c0.42-0.49,0.95-1.15,0.06-1.85
		c-0.68-0.54-1.19-0.33-1.96-0.12c-6.62,1.78-13.25,3.59-20.22,3.11c-3.15-0.22-6.09,0.38-9.02,1.6c-1.01,0.42-3.15,1.19-3.64-1.04
		c-0.41-1.87,0.38-3.25,2.57-3.21c2.05,0.04,3.17-1.9,5.15-2.26c1.3-0.24,2.39-1.81,1.99-3.55c-0.6-2.6-2.72-3.88-4.9-4.64
		c-2.13-0.75-4.75,0.16-6.57-1.94c-0.2-0.23-1.32-0.07-1.62,0.26c-3.96,4.35-3.92,4.45-8.69,5.81c-1.08,0.31-2.01,1.44-3.54,0.71
		c-0.5-0.74,0.35-1.85,0.62-1.97c8.4-3.95,15.35-10.33,23.95-14.04c3.05-1.31,6.22-1.29,9.2-2.52c9.9-4.08,19.69-8.43,29.55-12.6
		c11.37-4.8,23.3-7.59,34.95-11.37c4.64-1.51,9.1-3.7,13.6-5.36c10.38-3.84,19.55-10.8,31.06-11.96c2.4-0.24,5.7-1.16,7.58-3.77
		c0.49-0.68,1.15-1.37,2.2-1.31c9.14,0.52,16.52-4.99,24.84-7.27c9.92-2.72,19.57-6.83,29.64-8.49c8.77-1.44,17.97-0.3,27.67-0.3
		c-1.49,4.83-3.86,6.99-6.9,8.68c-0.59,0.33-2.31-0.59-1.79,1.4c0.42,1.61,1.79,1.99,2.68,1.39c5.87-3.91,9.64,1.47,14.19,3.12
		c1.45,0.53,2.38,2.09,4.29,0.85c1.12-0.72,2.36,0.44,2.98,1.2c0.62,0.75-0.51,1.6-1.17,2.11c-3.22,2.45-4.46,5.13-3.25,9.45
		c0.95,3.39-0.34,6.52-4.28,8.52c-5.74,2.92-9.85,8.1-14.66,12.31c-1.63,1.43-3,3.2-5.84,3.55c0.44-2.79,2.85-3.75,4.17-5.46
		c1.02-1.31,3.35-2.5,1.35-4.32c-1.72-1.56-4.4-1.71-5.97,0.17c-3.74,4.45-7.21,9.07-13,11.09c-0.51,0.18-1.2,0.79-1.22,1.23
		c-0.33,5.86-5.93,7.61-8.83,11.43c-0.7,0.92-1.31,1.92-2,2.86c-1.18,1.6-0.12,3.03,0.74,3.99c1.23,1.38,2.4,0.09,3.31-0.87
		c1.35-1.42,2.63-2.92,5.3-1.71c-7.51,7.7-14.92,15.3-22.34,22.9c-0.4-0.37-0.8-0.73-1.2-1.1c2.81-2.84,5.63-5.68,8.44-8.52
		c1.63-1.65,4.27-3.51,1.8-5.81c-2.49-2.32-5.04-0.49-6.66,1.86c-1.1,1.59-2.12,3.15-3.74,4.29c-3.39-2.7-0.99-4.82,0.91-6.64
		c0.78-0.76,1.97-1.25,2.7-2.17c0.72-0.9,0.66-2.08,0.2-2.95c-0.45-0.86-1.65-0.68-2.46-0.5c-2.51,0.54-5.55,1.82-5.84,4.03
		c-0.57,4.41-4.29,5.31-6.77,7.45c-2.42,2.07-3.86,4.71-5.64,7.16c-0.56,0.77-0.84,1.71-0.08,2.4c0.74,0.66,1.7,0.43,2.39-0.26
		c1.2-1.21,2.49-1.84,3.78-0.3c1.33,1.58,0.12,2.69-0.96,3.76c-3.67,3.64-6.64,7.9-10.89,11.05c-1.99,1.48-2.52,1.08-3.42-0.73
		c-0.57-1.15-0.85-3.4-2.97-1.88c-1.97,1.41-3,3.69-3.24,5.99c-0.09,0.87,1.76,0.66,2.7,0.4c1.19-0.33,1.77-2.17,3.79-1.26
		c-0.22,1.09-1.66,1.79-1.46,3.14c0.25,1.67-0.81,2.28-2.15,1.66c-2.5-1.17-4.7-1.02-5.76,1.62c-0.83,2.07,2.77,6.25,5.28,6.62
		c1.39,0.21,3.06-0.6,4.78,2.48c-3.1-2.53-6.21,0.62-8.21-2.7c-0.45-0.74-1.27-0.86-1.9-0.22c-2.68,2.72-6.86,3.76-8.37,7.91
		c-0.47,1.29-2.36,2.05-3.58,3.08c-4.51,3.82-8.2,7.99-11.24,13.39c-4.76,8.46-11,16.27-18.09,23.06c-1.95,1.87-4.21,3.85-6.86,5.24
		c-4.17,2.18-7.39,5.45-7.5,10.68c-0.04,2.09-1.39,3.45-2.78,4.75c-3.14,2.92-6.14,5.98-8.02,9.89c-0.6,1.25-2.67,2.68-0.53,4.11
		c1.99,1.33,4.25,0.38,4.8-1.54c1.22-4.3,4.87-6.53,7.2-9.84c2.6-3.68,6.03-6.41,9.11-9.69c1.43,3.75-0.82,6.21-2.66,8.56
		c-1.43,1.84-2.4,3.74-1.08,5.58c1.32,1.84,3.53,0.68,5.22,0.08c10.56-3.71,20.7-8.39,30.8-13.17c3.02-1.43,6.44-1.63,9.65-2.51
		c2.07-0.57,4.32-0.79,6.05-2.05c2.61-1.9,5.53-2.12,8.39-1.66c4.05,0.65,6.96-2.03,10.44-2.99c7.97-2.22,15.58-5.76,24.22-5.22
		c3.67,0.23,5.88-3.25,7.2-5.86c4.12-8.11,8.87-15.87,12.35-24.39c2.26-5.54,4.59-11.29,7.55-16.64c0.28-0.51,0.38-1.26,0.81-1.53
		c4.51-2.91,5.1-7.95,7.09-12.31c2.58-5.62,5.87-10.93,9.05-16.26c5.9-9.87,12.49-19.38,18.1-29.35c4.29-7.61,9.93-13.9,14.88-20.84
		c4.68-6.55,9.83-12.69,14.88-18.91c2.01-2.47,4.66-4.54,7.33-6.32c3.66-2.43,6.7-5.53,9.78-8.53c1.48-1.44,2.99-2.03,4.3-1.35
		c3.68,1.89,7.98,0.1,11.51,2.31c0.12,0.08,0.29,0.22,0.39,0.19c7.59-2.56,13.76,5.16,21.43,2.87c2.66-0.8,3.2,1.99,3.78,3.92
		c1.01,3.33,0.48,7.09,4.54,9.33c1.87,1.03,1.23,4.3,0.18,6.52c-0.83,1.76-1.47,3.53-0.92,6.21c-3.86-3.66-5.32-1.5-6.41,1.62
		c-0.29,0.82-0.82,1.66-0.78,2.46c0.12,2.19-1.53,5.53,1.56,6.16c3.42,0.7,3.76-2.42,3.67-5.12c-0.03-0.93,0.1-1.8,1.62-2.23
		c-0.42,3.78,1.81,7.41-0.59,11.14c-0.6,0.93-0.23,2.51,0.36,3.85c1.12,2.5-0.14,4.06-3.07,5.36c0.98-2.15,3.17-4.63,0.18-5.23
		c-2.65-0.53-6.68-2.27-8.27,1.62c-1.86,4.56-1.66,9.51,0,14.2c0.65,1.83,2.55,2.62,4.32,2.43c2.25-0.24,1.78-2.3,1.87-3.88
		c0.13-2.27-0.82-4.9,2.07-6.25c2.41,3.48,3.74,6.85-0.13,10.47c-0.72,0.67-0.28,2.78,0.21,4.27c0.98,2.97-0.31,4.52-3.36,3.75
		c-2.55-0.64-2.54,1.29-3.22,2.57c-2.13,3.95-2.07,8.44-2.52,12.67c-0.51,4.82-1.27,9.57-1.93,14.35c-0.25,1.81-0.5,3.78,0.66,5.61
		c0.66,1.05,1.07,2.17,2.52,2.07c1.41-0.1,2.04-1,2.12-2.38c0.05-0.81-0.21-2.05,1.16-1.83c0.55,0.09,1.4,1.01,1.38,1.52
		c-0.31,6.69,4.98,5.28,7.64,4.11c9.78-4.28,20.56-6.08,29.66-12.01c15.33-9.99,31.18-19.23,45.23-31.09
		c9.28-0.04,7.09-9.28,10.96-13.68c2.85-3.24,4.33-7.5,7.71-10.41c1.81-1.55,0.31-2.76-0.71-4.1c-1.34-1.77-3.67-1.57-5.22-3.13
		c-1.38-1.4-3.59-1.54-2.36-4.63c0.94-2.37-1.94-2.91-3.61-3.57c-1.92-0.77-4.11-2.88-6.01-1.17c-2.17,1.96-1.16,3.93,1.49,5.04
		c1.79,0.75,5.03,1.11,4.28,3.4c-0.72,2.23-3.44-0.06-4.99-0.36c-4.04-0.8-7.99-2.38-11.72-4.17c-1.36-0.65-2.76-0.81-4.24-1.25
		c0.14-2.1,3.58-4.11,0.91-5.78c-3.04-1.91-4.7-7.91-10.15-4.13c-0.89,0.62-1.58,0-2.57-0.58c-3.91-2.31-8.03-4.99-12.49-0.79
		c-0.78,0.74-2.55-0.53-2.46-2.31c0.17-3.36-1.73-4.6-4.45-4.81c-2.1-0.16-1.91-1.36-1.92-2.7c-0.01-1.18,0.24-2.98-1.03-3.13
		c-5.83-0.67-9.04-5.38-13.47-8.18c-0.89-0.56-2.09-0.68-2.93,0.02c-0.8,0.66-0.57,1.73,0.12,2.35c2.05,1.86,0.84,4.16,1.44,6.73
		c-2.51-2.7-2.87-5.35-2.99-8.34c-0.16-3.83,0.83-7.63-1.21-11.65c-1.08-2.13,2.29-5.34,4.1-7.78c5.12-6.92,11.47-12.57,18.42-17.6
		c6.03-4.37,12.65-7.61,19.47-10.5c8.62-3.65,17.1-7.86,25.83-10.95c8.37-2.96,17.3-4.85,26.05-6.97c9.15-2.22,18.32-4.5,27.49-6.48
		c6.63-1.43,13.29-3.06,19.97-4.39c7.67-1.53,15.31-3.42,22.94-5.24c4.92-1.17,9.66-3.28,14.9-2.59c0,0.3,0,0.6,0,0.89
		c-2.59,1.06-4.73,3.76-7.06,4.11c-4.16,0.62-3.97,3.03-3.58,5.63c0.37,2.49,0.26,3.79-2.78,3.82c-1.38,0.01-2.52,1.41-2.66,3.12
		c-0.11,1.32,0.27,2.44,1.57,2.87c4.2,1.39,7.28,4.76,11.37,6.31c0.79,0.3,1.32,0.52,1.32,1.41c0,1.01-0.55,1.8-1.44,2.03
		c-7.4,1.9-14.34,5.27-21.68,7.18c-9.97,2.6-19.4,6.81-29.45,9.17c-7.67,1.8-15.13,4.53-22.6,7.09c-4.25,1.46-8.98,0.73-12.9,2.17
		c-9.45,3.49-18.55,7.91-28.24,10.82c-1.84,0.55-4.15,0.97-4.08,3.26c0.08,2.46,2.64,3.01,4.5,3.23c7.3,0.88,13.97,4.06,20.89,6.08
		c15.11,4.41,29.84,10.35,43.28,18.78c4.19,2.63,8.41,5.36,9.13,11.54c0.49,4.25,2.27,8.78,5.14,12.26
		c2.28,2.76,1.75,5.19,1.04,8.16c-1.18,4.89-3.05,9.62-2.93,14.82c0.16,7.03-3.31,10.82-10.55,11.74c3.36-0.47,2.62-4.53,4.69-5.5
		c4.08-1.92,3.67-4.91,2.75-8.1c-0.46-1.61-0.41-2.11,1.29-2.88c1.94-0.89,1.1-3.17,0.68-4.71c-0.32-1.14-1.4-2.38-3-2.2
		c-1.99,0.23-2.06,1.74-2.1,3.31c-0.02,0.69-0.12,1.68-0.57,2.02c-5.69,4.3-5.87,11.97-10.48,16.93c-0.88,0.94-0.75,2.23-0.18,3.34
		c0.55,1.06,1.62,1.4,2.67,0.99c1.2-0.47,2.43-1.73,3.16,0.4c0.67,1.94-0.94,2.49-2.23,3.17c-1.46,0.77-2.99,0.99-4.65,1.09
		c-4.6,0.25-8.82,1.5-12.11,5.09c-1.37,1.49-2.87,2.86-4.63,4.05c-4.68,3.16-6.3,5.95-4.01,10.44c0.49,0.96,0.92,1.89-0.45,2.48
		c-1.12,0.48-2.4,0.2-2.68-0.82c-1.33-4.83-4.55-2.61-6.39-1.24c-4.47,3.3-9.08,6.35-13.69,9.44c-2.64,1.77-4,3.96-0.92,6.71
		c0.92,0.83,2.3,1.61,1.52,3.37c-1.93-0.19-3.87-0.38-5.93-0.58c1.98-3.81,1.63-5.28-1.04-5.01c-2.68,0.27-4.46,2.25-3.17,4.54
		c1.07,1.91,0.61,1.78-0.76,2.79c-3.73,2.77-7.56,5.62-11.48,7.79c-2.47,1.37-5.59,6.38-9.86,2.11c-0.82-0.82-1.88,0.2-2.04,0.94
		c-1.04,4.76-4.96,6.64-8.7,8.23c-7.81,3.32-15.8,6.24-23.77,9.18c-7.86,2.9-15.78,5.89-24.24,6.2c-3.54,0.13-5.42,1.72-6,4.6
		c-0.87,4.32,1.1,8.75-0.06,13.16c-0.25,0.94,0.86,0.99,1.43,1.39c1.49,1.06,1.38,2.11-0.13,3.09c-3.73,2.4-3.54,6.6-2.83,9.71
		c0.6,2.59,0.85,4.09,0.08,6.92c-1.31,4.8-0.64,10.33,0.02,15.44c0.71,5.5,0.91,11.04,0.21,16.39c-0.89,6.87-0.87,13.54,0.07,20.36
		c0.5,3.64,0.09,7.41,0.09,11.12c-2.44-2.8-4.12-5.62-3.48-9.16c0.38-2.07-1.13-3.56-1.56-5.29c-0.66-2.65-2.34-1.98-3.71-1.77
		c-1.82,0.28-2.34,1.67-1.49,3.35c0.43,0.84,0.85,1.75,0.07,2.42c-0.95,0.81-1.84-0.05-2.8-0.4c-1.26-0.46-1.85-1.27-2.38-2.4
		c-0.35-0.76-1.07-1.63-2.1-1.03c-0.91,0.53-1.58,1.25-0.75,2.55c0.43,0.67,0.37,1.71,0.37,2.58c0,0.83,0.39,2.14-0.56,2.33
		c-0.82,0.16-2.48-0.44-2.64-1.03c-0.98-3.46-4.69-4.36-6.33-7.07c-1.34-2.22-2.59-2.13-3.92-0.22c-0.93,1.34-1.81,1.66-2.43-0.01
		c-2.74-7.38-4.39-15.01-4.62-22.89c-0.18-6.17-1.59-12.09-3.62-17.84c-2.17-6.17-4.04-12.34-3.56-19c0.23-3.25-0.22-6.37-1.33-9.51
		c-0.95-2.67-2.08-3.11-4.45-1.79c-1.65,0.92-3.34,1.67-5.39,0.43c-2.18-1.32-4.54-1.79-7.08-0.36c-2.14,1.21-5.15,1.48-4.18,5.17
		c0.16,0.6-0.36,1.19-1.06,1.12c-3.32-0.31-6.09,0.22-7,4.07c-0.05,0.19-0.99,0.45-1.12,0.31c-3.83-4.07-5.84,0.35-8.48,1.78
		c-0.14-2.05-0.53-4-3.28-3.13c-1.09,0.34-2.89,0.91-2.06,2.63c1.06,2.2,2.9,2.03,4.73,0.79c0.24-0.16,0.5-0.29,0.75-0.43
		c-0.62,3.22-3.76,3.04-5.81,3.73c-7.1,2.39-14.3,4.39-19.03,10.87c-3.42,4.7-5.8,9.99-8.63,15.02c-2.2,3.92-0.07,10.62-7.14,11.55
		c-0.28,0.04-0.51,0.67-0.7,1.06c-2.13,4.38-3.8,9.01-7.48,12.51c-1,0.95-1.43,2.43-1.56,4c-0.52,6.11-1.99,7.63-8.1,8.51
		c-1.16,0.17-2.27,0.57-2.56,1.45c-1.17,3.49-4.71,5.57-5.38,9.31C223.71,385.42,223.11,385.42,222.52,385.42z M306.93,261.27
		c1.52,0.21,2.74-0.13,3.95-0.8c4.29-2.38,9.19-3.13,13.66-5.19c4.96-2.28,8.77-7.7,7.77-13.05c-0.86-4.62-0.84-9.54,0.72-13.76
		c1.3-3.51,0.11-5.53-1.86-7.32c-2.87-2.61-4.75,0.14-6.59,2.01c-0.91,0.93-1.97,1.7-2.09,3.26c-0.11,1.39-1.45,2.3-2.55,1.76
		c-4.07-2-4.99,0.78-6.86,3.45c-1.42,2.03-2.03,4.51-3.82,6.27c-0.27,0.26-0.29,0.78-0.43,1.18c-0.18-0.1-0.35-0.22-0.54-0.29
		c-1.82-0.72-4.17-2.29-4.37,1.31c-0.13,2.22-2.97,3.51-1.82,5.85c1.93,3.93,0.57,8.22,1.55,12.3
		C304.23,260.57,304.5,261.86,306.93,261.27z M410.79,251.64c2.11-0.15,3.25,0.04,4.16-0.34c6.93-2.9,13.85-5.82,20.68-8.94
		c2.86-1.31,2.83-4.17,1.96-6.56c-1.36-3.72-7.65-6.15-10.68-3.67c-5.4,4.42-12.01,6.55-17.66,10.41c-2.43,1.66-3.18,3.96-2.46,6.47
		C407.44,251.28,409.58,251.85,410.79,251.64z M492.22,73.83c-7.75-0.37-14.5,2.94-21.31,5.5c-4.66,1.75-5.31,7.02-1.72,9.15
		c1.88,1.12,4.26,0.97,6.03,0.37c7.16-2.43,14.37-4.44,21.89-5.41c2.31-0.3,3.46-2.52,4.16-4.58c0.81-2.38-1.68-2.77-2.86-3.79
		C496.65,73.55,494.31,73.69,492.22,73.83z M361.04,159.99c0-3.16,0.21-5.7-0.05-8.19c-0.34-3.13-1.47-6.34-4.8-7.09
		c-2.66-0.59-4.21,1.83-5.5,4.08c-3.96,6.92-2.4,14.18-1.18,21.3c0.4,2.33,1.56,5.52,4.82,5.38c3.26-0.14,4.79-2.81,6.02-5.65
		C361.83,166.36,360.5,162.81,361.04,159.99z M359.24,210.94c-0.12-3.05,0.59-6.79-0.94-10.28c-1.13-2.58-3.17-3.3-5.96-2.91
		c-2.39,0.33-4.23,0.81-4.73,3.59c-1.15,6.42-0.84,12.89-0.9,19.35c-0.01,1.29,0.33,2.3,1.31,3.1c1.28,1.03,2.32,2.99,4.29,2.03
		c3.13-1.51,6.5-3.07,6.88-7.18C359.42,216.29,359.24,213.9,359.24,210.94z M159.97,248.27c0.02-5.26-1.8-6.18-6.48-4.3
		c-7.73,3.1-12.04,9.79-17.29,15.54c-2.33,2.55-1.36,5.11,0.61,6.48c2.02,1.41,4.74,2.9,7.45-0.04c3.99-4.34,8.02-8.75,12.98-12.02
		C159.57,252.39,160.13,250.49,159.97,248.27z M176.61,224.71c2.25,0.25,4.32-0.54,5.76-2.35c3.46-4.33,8.26-7.08,12.51-10.4
		c3.21-2.51,3.91-4.08,1.6-7.72c-2.47-3.9-5.49-3.57-8.13-1.64c-5.23,3.81-10.2,8.09-14.3,13.13c-1.62,1.99-2.16,4.84-1.38,7.5
		C173.22,225.08,175.02,224.68,176.61,224.71z M116.11,187.21c4.67-1.29,11.03-2.69,16.62-6.17c3.14-1.96,3.52-5.01,2.13-8.26
		c-0.95-2.21-2.92-3.21-5.07-2.43c-6.22,2.24-12.4,4.63-18.46,7.3c-1.76,0.77-3.47,2.37-4.03,4.46
		C106.37,185.54,108.77,187.22,116.11,187.21z M281.39,237.59c1,2.13-0.06,6.05,3.1,7.17c2.82,1,4.38-1.94,5.76-4.2
		c3.33-5.43,6.45-11.01,10.2-16.13c2.23-3.04,2.04-5.23-0.86-6.92c-2.63-1.53-5.69-1.8-7.86,1.06c-1.92,2.54-3.88,5.13-5.25,7.98
		C284.78,230.04,281.65,232.86,281.39,237.59z M329.79,177.2c0.32-1.95-0.7-3.42-2.23-3.96c-2.63-0.92-5.46-0.57-7.29,1.67
		c-4.22,5.18-7.98,10.71-11.26,16.53c-1.62,2.87-0.51,6,1.48,7.93c2.34,2.26,4.74-0.17,6.85-1.51c0.55-0.35,0.84-1.11,1.23-1.7
		c2.57-3.86,4.57-8.06,7.79-11.56C328.14,182.65,329.31,179.96,329.79,177.2z M185.48,152.25c-1.01,0.16-2.03,0.29-3.03,0.49
		c-6.13,1.25-11.82,3.82-17.68,5.89c-2.76,0.98-5.32,2.1-3.9,5.76c1.29,3.32,3.66,4.71,7.27,3.56c6.44-2.05,12.89-4.06,19.34-6.05
		c2.92-0.9,3.33-3.14,2.79-5.6C189.75,153.87,188.74,151.67,185.48,152.25z M452.19,128.57c0.41-1.88-0.36-3.65-2.25-4.58
		c-5.6-2.76-11.2-5.56-16.99-7.88c-1.97-0.79-5.08-1.48-6.45,1.04c-1.39,2.56-0.94,5.62,1.79,7.27c5.7,3.44,11.27,7.26,17.74,9.12
		C449.53,134.54,452.15,132.3,452.19,128.57z M520.73,71.36c5.89-2,12.11-2.92,17.76-5.73c2.87-1.43,3.9-3.87,2.73-6.5
		c-1.11-2.51-3.4-3.94-6.58-2.9c-5.23,1.72-10.47,3.43-15.79,4.8c-3,0.77-5.15,2.53-4.58,5.28
		C514.86,69.12,516.93,71.65,520.73,71.36z M213.75,187.37c2.14-0.3,3.28,0.01,4.43-0.67c5.18-3.11,9.87-6.83,13.82-11.39
		c0.8-0.92,1.55-2.26,0.99-4.03c-1.28-4.05-7.87-5.4-11.79-1.8c-3.66,3.37-6.86,7.25-10.06,11.08c-0.98,1.16-1.76,2.85-0.84,4.51
		C211.23,186.77,212.74,187.57,213.75,187.37z M222.29,150.68c6.79-1.05,13.25-3.31,19.23-6.57c2.23-1.21,2.07-4.38,1.13-6.85
		c-0.84-2.2-2.86-3.29-4.92-2.64c-6.46,2.04-13,4.05-18.52,8.2c-1.35,1.02-2.85,2.18-1.52,4.43
		C218.77,149.09,219.69,150.89,222.29,150.68z M86.4,327.41c-1.7-0.33-3.12,0.05-4.08,2.01c-2.48,5.03-5.23,9.93-7.69,14.97
		c-1.09,2.24-1.03,5.02,0.82,6.56c2.07,1.73,4.31-0.18,6.45-1.08c1.2-0.5,1.31-1.5,1.91-2.24c2.66-3.27,4.57-7.06,7.41-10.26
		c1.4-1.57,2.54-3.92,0.86-6.35C90.71,329.04,89.47,327.02,86.4,327.41z M365.84,255.04c-4.4,0.05-8.63,0.97-12.69,2.67
		c-3.7,1.55-4.5,4.69-3.6,8.03c1,3.69,4.45,3.05,7.09,2.58c4.83-0.87,9.56-2.33,14.36-3.39c2.44-0.54,3.45-1.87,3.46-4.31
		C374.48,256.62,372.12,255.06,365.84,255.04z M280.61,289.12c0.04-3.12-2.22-5.26-5.49-4.44c-5.59,1.39-11.32,2.39-16.66,4.66
		c-2.72,1.16-3.95,4.75-2.26,6.87c1.8,2.26,4.56,3.62,7.23,3.04c4.49-0.98,8.96-2.44,13.13-4.36
		C278.59,293.96,280.95,292.21,280.61,289.12z M481.76,133.63c-3.52,0.04-7.05-0.23-10.5,0.89c-1.32,0.43-2.07,1.07-2.08,2.44
		c-0.01,1.28-0.4,2.9,1.47,3.15c5.7,0.78,9.54,5.8,15.57,6.25c5.51,0.41,7.45,0.14,7.96-3.68c0.7-5.22-2.12-8.85-7.07-9.05
		C485.33,133.57,483.55,133.63,481.76,133.63z M103.72,300.13c0.28,1.2,0.58,3.16,2.59,4c1.96,0.82,4.16,0.56,5.61-0.77
		c3.97-3.65,8.38-6.89,11.5-11.38c1.41-2.04,1.96-4.27-0.17-6.15c-1.85-1.63-3.39-2.77-6.46-0.96c-4.47,2.63-7.56,6.5-11.21,9.86
		C104.26,295.94,103.5,297.57,103.72,300.13z M172.35,323.91c6.41-1.16,12.56-2.76,18.13-6.66c2.54-1.78,2.88-3.57,2.42-5.86
		c-0.55-2.73-3.11-2.1-4.79-1.79c-6.13,1.15-12.09,2.92-17.94,5.15c-3.06,1.17-3.48,3.45-2.99,6.06
		C167.71,323.54,169.85,324.08,172.35,323.91z M312.23,281.85c4.44,0.51,8.39-1.89,12.68-2.64c2.82-0.49,5.16-1.14,4.89-4.85
		c-0.27-3.65-2.77-4.83-5.65-4.93c-5.76-0.21-11.26,1.21-16.58,3.43c-2.76,1.15-3.18,3.32-2.79,5.81c0.41,2.59,2.64,2.83,4.66,3.15
		C310.31,281.96,311.23,281.85,312.23,281.85z M434.93,104.39c5.5-1.9,9.69-6.09,14.68-8.92c1.87-1.06,3.7-2.95,2.12-5.52
		c-1.45-2.35-3.88-3.66-6.47-2.63c-5.15,2.05-10.21,4.45-14.32,8.28c-1.41,1.32-2.71,2.97-1.35,5.44
		C430.81,103.27,432.18,104.56,434.93,104.39z M215.05,311.41c5.58-0.09,9.79-2.29,14.2-3.65c3.09-0.95,3.75-3.89,2.85-6.49
		c-0.95-2.73-3.5-4.05-6.48-3.29c-4.64,1.19-9.27,2.45-13.8,3.99c-3.69,1.25-4.25,4.12-1.83,7.13
		C211.54,311.04,213.45,311.75,215.05,311.41z M475.7,204.91c-5.04,1.32-9.42,3.45-13.02,7.68c-2.61,3.06-1.84,5.69-0.29,8.11
		c1.63,2.56,4.59,1.77,6.67,0.39c3.76-2.51,7.37-5.34,10.26-8.86c1.16-1.42,2.24-3.24,1.07-5.23
		C479.38,205.29,477.75,204.74,475.7,204.91z M514.75,163c0.29-2.34-0.9-3.79-2.97-4.28c-2-0.47-3.37,0.2-4.6,2.31
		c-2.67,4.6-3.79,9.75-5.69,14.6c-0.84,2.16-0.59,5.06,2.25,5.99c2.51,0.83,5.04,0.14,6.49-2.38
		C513.13,174.22,513.9,168.58,514.75,163z M134.77,327.34c-5.15,0.66-10.23,1.78-15.2,3.32c-3.14,0.98-3.26,3.22-1.56,5.46
		c1.06,1.4,2.42,2.88,4.54,2.87c4.7-0.03,9.23-1.24,13.48-2.93c2.19-0.87,4.93-2.8,4.13-6.03
		C139.52,327.44,137.18,327.09,134.77,327.34z M150.26,349.03c2.5-3.38,6.72-3.62,10.45-4.84c4.53-1.48,3.05-6.75,6.26-9.07
		c0.72-0.52-0.51-2.2-1.87-2.31c-2.8-0.22-5.88,1.84-5.7,3.56c0.45,4.43-2.12,3.64-4.42,3.47c-2.6-0.19-4.72,0.82-7.03,1.71
		c-2.02,0.77-2.7,1.96-2.16,3.62C146.38,346.97,147.77,348.35,150.26,349.03z M337.8,324.3c0,1.63-0.01,3.26,0,4.89
		c0.01,1.52,0.61,2.63,2.3,2.6c1.41-0.03,2.08-0.94,2.16-2.31c0.11-2-0.43-4.62,3.2-3.29c0.19,0.07,0.97-1.01,1.18-1.64
		c0.23-0.71,0.05-1.57-0.97-1.57c-1.09,0-1.42-0.67-1.88-1.49c-0.97-1.72-1.64-4.39-4.2-3.75c-3.07,0.76-1.37,3.7-1.79,5.68
		C337.74,323.7,337.79,324,337.8,324.3z M361.04,321.03c0.37-3.01-1.66-7.51-3.22-7.36c-2.86,0.28-3.57,4.47-3.76,7.31
		c-0.17,2.56,1.06,5.58,4.38,5.38C361.26,326.19,361.03,323.46,361.04,321.03z M233.24,346.21c-0.01-1.46,0.16-3.56-1.73-3.37
		c-1.78,0.18-3.31,1.77-3.61,3.88c-0.32,2.28,1.52,2.76,3.01,2.88C233.2,349.77,233.28,347.92,233.24,346.21z"/>
</g>
</svg>
